<svg width="128" height="128" viewBox="0 0 128 128" fill="none" xmlns="http://www.w3.org/2000/svg">
<path d="M59 29C59 27.8954 59.8954 27 61 27H77C78.1046 27 79 27.8954 79 29V107H59V29Z" fill="#AEEC5F"/>
<path d="M29 69C29 67.8954 29.8954 67 31 67H47C48.1046 67 49 67.8954 49 69V107H29V69Z" fill="#AEEC5F"/>
<path d="M91 51C89.8954 51 89 51.8954 89 53V107H109V53C109 51.8954 108.105 51 107 51H91Z" fill="#AEEC5F"/>
<path d="M61 66C60.4477 66 60 66.4477 60 67C60 67.5523 60.4477 68 61 68H71C71.5523 68 72 67.5523 72 67C72 66.4477 71.5523 66 71 66H61Z" fill="black"/>
<path d="M60 75C60 74.4477 60.4477 74 61 74H71C71.5523 74 72 74.4477 72 75C72 75.5523 71.5523 76 71 76H61C60.4477 76 60 75.5523 60 75Z" fill="black"/>
<path d="M61 82C60.4477 82 60 82.4477 60 83C60 83.5523 60.4477 84 61 84H71C71.5523 84 72 83.5523 72 83C72 82.4477 71.5523 82 71 82H61Z" fill="black"/>
<path d="M60 91C60 90.4477 60.4477 90 61 90H71C71.5523 90 72 90.4477 72 91C72 91.5523 71.5523 92 71 92H61C60.4477 92 60 91.5523 60 91Z" fill="black"/>
<path d="M61 98C60.4477 98 60 98.4477 60 99C60 99.5523 60.4477 100 61 100H71C71.5523 100 72 99.5523 72 99C72 98.4477 71.5523 98 71 98H61Z" fill="black"/>
<path fill-rule="evenodd" clip-rule="evenodd" d="M76 106C77.1046 106 78 105.105 78 104V32C78 29.7909 76.2091 28 74 28H58C55.7909 28 54 29.7909 54 32V104C54 105.105 54.8954 106 56 106H76ZM56 32C56 30.8954 56.8954 30 58 30H74C75.1046 30 76 30.8954 76 32V104H56V32Z" fill="black"/>
<path d="M30 83C30 82.4477 30.4477 82 31 82H41C41.5523 82 42 82.4477 42 83C42 83.5523 41.5523 84 41 84H31C30.4477 84 30 83.5523 30 83Z" fill="black"/>
<path d="M31 90C30.4477 90 30 90.4477 30 91C30 91.5523 30.4477 92 31 92H41C41.5523 92 42 91.5523 42 91C42 90.4477 41.5523 90 41 90H31Z" fill="black"/>
<path d="M30 99C30 98.4477 30.4477 98 31 98H41C41.5523 98 42 98.4477 42 99C42 99.5523 41.5523 100 41 100H31C30.4477 100 30 99.5523 30 99Z" fill="black"/>
<path fill-rule="evenodd" clip-rule="evenodd" d="M48 104C48 105.105 47.1046 106 46 106H26C24.8954 106 24 105.105 24 104V64C24 61.7909 25.7909 60 28 60H44C46.2091 60 48 61.7909 48 64V104ZM28 62C26.8954 62 26 62.8954 26 64V104H46V64C46 62.8954 45.1046 62 44 62H28Z" fill="black"/>
<path d="M90 75C90 74.4477 90.4477 74 91 74H101C101.552 74 102 74.4477 102 75C102 75.5523 101.552 76 101 76H91C90.4477 76 90 75.5523 90 75Z" fill="black"/>
<path d="M91 82C90.4477 82 90 82.4477 90 83C90 83.5523 90.4477 84 91 84H101C101.552 84 102 83.5523 102 83C102 82.4477 101.552 82 101 82H91Z" fill="black"/>
<path d="M90 91C90 90.4477 90.4477 90 91 90H101C101.552 90 102 90.4477 102 91C102 91.5523 101.552 92 101 92H91C90.4477 92 90 91.5523 90 91Z" fill="black"/>
<path d="M91 98C90.4477 98 90 98.4477 90 99C90 99.5523 90.4477 100 91 100H101C101.552 100 102 99.5523 102 99C102 98.4477 101.552 98 101 98H91Z" fill="black"/>
<path fill-rule="evenodd" clip-rule="evenodd" d="M108 104C108 105.105 107.105 106 106 106H86C84.8954 106 84 105.105 84 104V48C84 45.7909 85.7909 44 88 44H104C106.209 44 108 45.7909 108 48V104ZM88 46C86.8954 46 86 46.8954 86 48V104H106V48C106 46.8954 105.105 46 104 46H88Z" fill="black"/>
</svg>
