<?xml version="1.0" ?><svg id="Thumbs_Up" style="enable-background:new 0 0 32 32;" version="1.1" viewBox="0 0 32 32" xml:space="preserve" xmlns="http://www.w3.org/2000/svg" xmlns:xlink="http://www.w3.org/1999/xlink"><style type="text/css">
	.st0{fill:#FCD2B4;}
	.st1{fill:#55C1FA;}
</style><g><path class="st0" d="M29.817,16.69c0.354-1.048,0.182-2.208-0.461-3.104c-0.646-0.899-1.65-1.416-2.757-1.416h-8.563   c0.751-1.794,1.204-2.888,1.204-5.44c0.006-0.777-0.262-1.583-0.809-2.425c-0.355-0.533-0.814-1.082-1.364-1.632   c-0.808-0.809-2.062-0.891-2.957-0.152c-0.851,0.707-0.852,1.676-0.853,2.456c0.014,0.385-0.052,1.107-0.081,1.502   c-0.673,1.544-1.458,2.317-2.445,3.28c-0.405,0.395-0.852,0.831-1.323,1.356c0.366,0.549,0.581,1.207,0.581,1.915v13.218   c0,0.405-0.081,0.788-0.2,1.153H24.36c0.389-0.011,0.765-0.251,0.922-0.611L29.817,16.69z"/><path class="st1" d="M9.989,26.247V13.029c0-0.708-0.215-1.366-0.581-1.915c-0.622-0.934-1.682-1.551-2.885-1.551H6.04   C3.812,9.563,2,11.375,2,13.602v12.645C2,28.316,3.684,30,5.753,30h0.483c1.664,0,3.063-1.096,3.553-2.6   C9.908,27.035,9.989,26.652,9.989,26.247z"/></g></svg>